<svg xmlns="http://www.w3.org/2000/svg" viewBox="0 0 200 200">
  <g fill="none" stroke="#6b4a1f" stroke-width="4" stroke-linecap="round" stroke-linejoin="round">
    <!-- oversized helmet with tall crest -->
    <path d="M86 40 L100 12 L114 40"/>
    <path d="M76 54 Q100 24 124 54 L124 62 Q100 48 76 62 Z"/>
    <!-- head -->
    <circle cx="100" cy="64" r="19"/>
    <path d="M100 58 L100 74"/>
    <!-- broad-shouldered armor -->
    <path d="M72 86 C72 80 128 80 128 86 L144 185 Q100 198 56 185 Z"/>
    <path d="M100 86 L100 182"/>
    <path d="M76 128 L124 128"/>
    <!-- arm holding the oversized spear, towering above him -->
    <path d="M126 95 L138 110"/>
    <path d="M138 110 L138 10"/>
    <path d="M132 10 L138 2 144 10 Z"/>
    <!-- other arm resting -->
    <path d="M74 95 L60 118"/>
  </g>
</svg>
