<svg xmlns="http://www.w3.org/2000/svg" viewBox="0 0 200 200">
  <g fill="none" stroke="#6b4a1f" stroke-width="4" stroke-linecap="round" stroke-linejoin="round">
    <!-- head -->
    <circle cx="100" cy="70" r="20"/>
    <!-- robe -->
    <path d="M76 92 C76 87 124 87 124 92 L142 185 Q100 197 58 185 Z"/>
    <path d="M100 92 L100 182"/>
    <path d="M78 130 L122 130"/>
    <!-- staff arm (right, viewer's left) -->
    <path d="M80 100 L60 130"/>
    <path d="M50 60 L50 165"/>
    <path d="M50 60 C 44 60 40 64 40 70 C40 76 44 80 50 80"/>
    <!-- tablets arm (left, viewer's right) -->
    <path d="M120 100 L138 122"/>
    <!-- two tablets of the Ten Commandments -->
    <g stroke-width="3">
      <path d="M124 144 L124 118 C124 110 136 110 136 118 L136 144 Z"/>
      <path d="M140 144 L140 118 C140 110 152 110 152 118 L152 144 Z"/>
      <path d="M127 116 L133 116 M127 121 L133 121 M127 126 L133 126 M127 131 L133 131 M127 136 L133 136"/>
      <path d="M143 116 L149 116 M143 121 L149 121 M143 126 L149 126 M143 131 L149 131 M143 136 L149 136"/>
    </g>
  </g>
</svg>
